<?xml version="1.0" encoding="UTF-8"?>
<svg width="800" height="600" xmlns="http://www.w3.org/2000/svg" style="background: #F5F5F5;">
    <defs>
        <style>
            .titulo { 
                font-family: 'Arial Black', Arial, sans-serif; 
                font-size: 20px; 
                font-weight: bold; 
                text-anchor: middle; 
                fill: white;
                text-shadow: 2px 2px 4px rgba(0,0,0,0.3);
            }
            .fase { 
                font-family: Arial, sans-serif; 
                font-size: 16px; 
                font-weight: bold; 
                text-anchor: middle; 
                fill: #333;
            }
            .equipo { 
                font-family: Arial, sans-serif; 
                font-size: 11px; 
                text-anchor: middle; 
                font-weight: bold;
                fill: white;
                text-shadow: 1px 1px 2px rgba(0,0,0,0.5);
            }
            .resultado { 
                font-family: Arial, sans-serif; 
                font-size: 12px; 
                text-anchor: middle; 
                font-weight: bold;
                fill: white;
                text-shadow: 1px 1px 2px rgba(0,0,0,0.5);
            }
            .caja { 
                stroke: #333; 
                stroke-width: 2; 
                fill-opacity: 0.9;
                filter: drop-shadow(3px 3px 6px rgba(0,0,0,0.2));
            }
            .linea { 
                stroke: #333; 
                stroke-width: 3; 
                fill: none;
                opacity: 0.7;
            }
        </style>
        <linearGradient id="tituloGradient" x1="0%" y1="0%" x2="100%" y2="0%">
            <stop offset="0%" style="stop-color:#FF6F00;stop-opacity:1" />
            <stop offset="100%" style="stop-color:#FF8F00;stop-opacity:1" />
        </linearGradient>
        <linearGradient id="finalGradient" x1="0%" y1="0%" x2="100%" y2="0%">
            <stop offset="0%" style="stop-color:#9C27B0;stop-opacity:1" />
            <stop offset="100%" style="stop-color:#E91E63;stop-opacity:1" />
        </linearGradient>
    </defs>
    <ellipse cx="400" cy="50" rx="250" ry="35" fill="url(#tituloGradient)" class="caja"/>
    <text x="400" y="58" class="titulo">Mega Copa Universitaria</text>
    <rect x="50" y="110" width="700" height="140" 
          fill="#f0f0f0" stroke="#ccc" stroke-width="1" rx="10"/>
    <text x="400" y="130" class="fase">Cuartos de Final</text>
    <rect x="230" y="160" width="140" height="65" 
          fill="#fff" class="caja" rx="5"/>
    <rect x="233" y="163" width="134" height="22" 
          fill="#F44336" stroke="none" rx="3"/>
    <text x="300" y="177" class="equipo">Leones Dorados</text>
    <text x="360" y="177" class="resultado" font-weight="bold">2</text>
    <rect x="233" y="192" width="134" height="22" 
          fill="#F44336" stroke="none" rx="3"/>
    <text x="300" y="206" class="equipo">Tiburones Az...</text>
    <text x="360" y="206" class="resultado" font-weight="bold">2</text>
    <path d="M 300 225 L 300 255 L 400 255 L 400 360" 
          class="linea" marker-end="url(#arrow)"/>
    <text x="310" y="245" class="resultado" fill="#666">Ganador</text>
    <rect x="430" y="160" width="140" height="65" 
          fill="#fff" class="caja" rx="5"/>
    <rect x="433" y="163" width="134" height="22" 
          fill="#4CAF50" stroke="none" rx="3"/>
    <text x="500" y="177" class="equipo">Águilas Negras</text>
    <text x="560" y="177" class="resultado" font-weight="bold">3</text>
    <rect x="433" y="192" width="134" height="22" 
          fill="#F44336" stroke="none" rx="3"/>
    <text x="500" y="206" class="equipo">Pumas Blancos</text>
    <text x="560" y="206" class="resultado" font-weight="bold">1</text>
    <path d="M 500 225 L 500 255 L 400 255 L 400 360" 
          class="linea" marker-end="url(#arrow)"/>
    <text x="510" y="245" class="resultado" fill="#666">Ganador</text>
    <path d="M 300 225 L 300 255 L 400 255 L 400 360" 
          class="linea" marker-end="url(#arrow)"/>
    <text x="310" y="245" class="resultado" fill="#666">Ganador</text>
    <path d="M 500 225 L 500 255 L 400 255 L 400 360" 
          class="linea" marker-end="url(#arrow)"/>
    <text x="510" y="245" class="resultado" fill="#666">Ganador</text>
    <rect x="50" y="310" width="700" height="140" 
          fill="#f0f0f0" stroke="#ccc" stroke-width="1" rx="10"/>
    <text x="400" y="330" class="fase">Semifinal</text>
    <rect x="330" y="360" width="140" height="65" 
          fill="#fff" class="caja" rx="5"/>
    <rect x="333" y="363" width="134" height="22" 
          fill="#FFC107" stroke="none" rx="3"/>
    <text x="400" y="377" class="equipo">Leones Dorados</text>
    <text x="460" y="377" class="resultado" font-weight="bold">-</text>
    <rect x="333" y="392" width="134" height="22" 
          fill="#FFC107" stroke="none" rx="3"/>
    <text x="400" y="406" class="equipo">Águilas Negras</text>
    <text x="460" y="406" class="resultado" font-weight="bold">-</text>
    <text x="400" y="418" class="resultado" fill="#666" style="font-style: italic;">Pendiente</text>
    <path d="M 400 425 L 400 455 L 400 455 L 400 560" 
          class="linea" marker-end="url(#arrow)"/>
    <text x="410" y="445" class="resultado" fill="#666">Ganador</text></svg>